<?xml version="1.0" encoding="UTF-8"?>
<svg version="1" viewBox="0 0 64 64" xmlns="http://www.w3.org/2000/svg">
<path d="m14.5 8c-1.385 0-2.5 1.115-2.5 2.5v45c0 1.385 1.115 2.5 2.5 2.5h35c1.385 0 2.5-1.115 2.5-2.5v-32.5l-13.75-1.25-1.25-13.75z" opacity=".2"/>
<path d="m14.5 7c-1.385 0-2.5 1.115-2.5 2.5v45c0 1.385 1.115 2.5 2.5 2.5h35c1.385 0 2.5-1.115 2.5-2.5v-32.5l-13.75-1.25-1.25-13.75z" fill="#e4e4e4"/>
<path d="m37 8v12.5c0 1.3808 1.1193 2.5 2.5 2.5h12.5z" opacity=".2"/>
<path d="m37 7v12.5c0 1.3808 1.1193 2.5 2.5 2.5h12.5l-15-15z" fill="#fafafa"/>
<path d="m32 29c-3.331 0-5 3.238-5 6h3c0.05-0.353 3e-3 -0.676 0-1 0-1.105 0.895-2 2-2s2 0.895 2 2c-1e-3 0.11-0.011 0.22-0.029 0.328-4e-3 0.023-6e-3 0.046-0.01 0.068-0.341 1.895-2.932 3.997-2.961 6.979v0.625h3c0-1.875-0.187-2.625 0.713-3.537l1.125-1.151c0.712-0.712 1.162-1.712 1.162-2.812 0-2.762-1.669-5.5-5-5.5zm-1 15v3h3v-3h-3z" opacity=".5"/>
<path d="m14.5 7c-1.385 0-2.5 1.115-2.5 2.5v1c0-1.385 1.115-2.5 2.5-2.5h22.5v-1z" fill="#fff" opacity=".2"/>
</svg>
